# xmcd
#
# Track frame offsets:
#	151
#	13176
#	27849
#	41095
#	50742
#	67968
#	82643
#	99570
#	113937
#	127041
#	140586
#	153318
#
# Disc length: 2190 seconds
#
# Revision: 1
# Processed by: cddbd v1.5.2PL0 Copyright (c) Steve Scherf et al.
# Submitted via: audiograbber 1.83.01
#
DISCID=9d088c0c
DTITLE=Tricia Brown - Tricia Brown
DYEAR=1900
DGENRE=
TTITLE0=Dirt Road Dancing
TTITLE1=It´s Not What You Do
TTITLE2=Walkin´ On The Blueside
TTITLE3=You Give Love A Good Name
TTITLE4=Jukebox Hero
TTITLE5=The Trouble With Tears
TTITLE6=Why Don´t We Drop Anchor
TTITLE7=Somewhere Out There Tonight
TTITLE8=It Took A Lot More Than That
TTITLE9=Woman In The Moon
TTITLE10=You´re Gonna Miss Me
TTITLE11=Good Old Fashion Romance 
EXTD=
EXTT0=
EXTT1=
EXTT2=
EXTT3=
EXTT4=
EXTT5=
EXTT6=
EXTT7=
EXTT8=
EXTT9=
EXTT10=
EXTT11=
PLAYORDER=
